<svg id="圖層_1" data-name="圖層 1" xmlns="http://www.w3.org/2000/svg" xmlns:xlink="http://www.w3.org/1999/xlink" viewBox="0 0 64.755 64.779"><defs><style>.cls-1{fill:none;}.cls-2{clip-path:url(#clip-path);}.cls-3{fill:#ffe18d;}.cls-4{fill:#ffb09e;}.cls-5{fill:#fff;}.cls-6{fill:#d3e1f5;}.cls-7{fill:#ffa31f;}.cls-8{fill:#3d5868;}.cls-9{fill:#2a434f;}.cls-10{fill:#ffcebf;}</style><clipPath id="clip-path"><circle class="cls-1" cx="32.378" cy="32.39" r="32.378"/></clipPath></defs><g class="cls-2"><circle class="cls-3" cx="32.378" cy="32.39" r="32.378"/><path class="cls-4" d="M27.548,40.42V53.455a5.676,5.676,0,0,0,5.676,5.676h0A5.677,5.677,0,0,0,38.9,53.455V40.42Z"/><path class="cls-5" d="M54.48,67.391c-1.2-5.164-10.093-14.541-10.093-14.541L33.2,56.154l-11.247-3.28s-8.9,9.377-10.093,14.541l7.129,4.412.009-.02h0l.243,1.552L47.1,73.335l.244-1.552h0l.009.02Z"/><path class="cls-6" d="M27.545,52.267,33.2,56.154l-4.307,3.954a.715.715,0,0,1-.942.017L22.429,55.41a.664.664,0,0,1,.167-1.118Z"/><path class="cls-6" d="M38.9,52.235l-5.7,3.919L37.5,60.108a.715.715,0,0,0,.942.017l5.518-4.715a.665.665,0,0,0-.167-1.118Z"/><path class="cls-7" d="M26.859,61.269a42.738,42.738,0,0,1-.352-8.954,25.132,25.132,0,0,0-2.632.2,8.473,8.473,0,0,0-1.926.356s-1,14.87-2.955,18.933c.021.912.089,1.552.243,1.552H32.413C29.622,68.579,27.191,63.859,26.859,61.269Z"/><path class="cls-7" d="M39.477,61.245a42.72,42.72,0,0,0,.353-8.954,25.11,25.11,0,0,1,2.631.2,8.451,8.451,0,0,1,1.926.356s1,14.87,2.956,18.933c-.021.912-.09,1.552-.244,1.552H33.923C36.715,68.555,39.146,63.835,39.477,61.245Z"/><path class="cls-7" d="M27.545,52.267c-.4,0-.879.023-1.385.065a42.681,42.681,0,0,0,.354,8.889c.332,2.59,2.763,7.31,5.555,12.09h1.382C31.774,68.231,28.514,62.225,27.545,52.267Z"/><path class="cls-7" d="M38.9,52.235c.4,0,.879.023,1.384.065a42.621,42.621,0,0,1-.354,8.89c-.332,2.59-2.763,7.309-5.554,12.089H32.988C34.666,68.2,37.926,62.194,38.9,52.235Z"/><path class="cls-8" d="M35.641,4.318H30.808A17.628,17.628,0,0,0,13.2,21.926V37.355a1.011,1.011,0,0,0,1.011,1.011H52.237a1.012,1.012,0,0,0,1.012-1.011V21.926A17.628,17.628,0,0,0,35.641,4.318Z"/><path class="cls-9" d="M35.641,4.318H31.748A17.628,17.628,0,0,1,49.356,21.926V37.355a1.012,1.012,0,0,1-1.012,1.011h3.893a1.012,1.012,0,0,0,1.012-1.011V21.926A17.628,17.628,0,0,0,35.641,4.318Z"/><path class="cls-4" d="M15.673,34.522H22.33v7.633H15.673a3.817,3.817,0,1,1,0-7.633Z"/><path class="cls-4" d="M50.776,34.522H44.119v7.633h6.657a3.817,3.817,0,1,0,0-7.633Z"/><path class="cls-10" d="M48.342,25.28V35.424a15.118,15.118,0,0,1-30.235,0V27.769A8.492,8.492,0,0,0,24.2,21.4a22.833,22.833,0,0,0,24.14,3.876Z"/><path class="cls-4" d="M48.342,35.424V25.28A22.775,22.775,0,0,1,45.2,26.369V37A13.546,13.546,0,0,1,32.413,50.52h0c.132.007.264.012.4.016h.007c.135,0,.27,0,.406,0h0A15.118,15.118,0,0,0,48.342,35.424Z"/></g></svg>