<svg id="圖層_1" data-name="圖層 1" xmlns="http://www.w3.org/2000/svg" xmlns:xlink="http://www.w3.org/1999/xlink" viewBox="0 0 64.755 64.759"><defs><style>.cls-1{fill:none;}.cls-2{clip-path:url(#clip-path);}.cls-3{fill:#a8e2f1;}.cls-4{fill:#fff;}.cls-5{fill:#49b6f2;}.cls-6{fill:#68c8fc;}.cls-7{fill:#304a56;}.cls-8{fill:#3d5868;}.cls-9{fill:#e6e6e6;}.cls-10{fill:#ccc;}.cls-11{fill:#2a434f;}.cls-12{fill:#ffb09e;}.cls-13{fill:#ffcebf;}</style><clipPath id="clip-path"><circle class="cls-1" cx="32.378" cy="32.378" r="32.378"/></clipPath></defs><g class="cls-2"><circle class="cls-3" cx="32.378" cy="32.378" r="32.378"/><path class="cls-4" d="M39.2,50.978H25.552A10.7,10.7,0,0,0,14.865,61.664v8.472a.968.968,0,0,0,.968.968h33.09a.967.967,0,0,0,.967-.968V61.664A10.7,10.7,0,0,0,39.2,50.978Z"/><rect class="cls-5" x="26.949" y="51.944" width="10.858" height="19.159"/><polygon class="cls-6" points="32.378 52.904 32.378 57.654 37.807 61.431 37.807 51.945 32.378 52.904"/><polygon class="cls-6" points="26.949 61.431 32.378 57.654 32.378 52.904 26.949 51.945 26.949 61.431"/><path class="cls-7" d="M32.378,57.654l-2.906,2.022a4.027,4.027,0,0,0,5.812,0Z"/><path class="cls-8" d="M32.378,60.915a4.035,4.035,0,0,1-1.211-.185L29.83,71.1h5.095L33.588,60.73A4.029,4.029,0,0,1,32.378,60.915Z"/><path class="cls-9" d="M26.949,51.294l-4.47,6.918a1.277,1.277,0,0,0,.109,1.531l4.361,5.016Z"/><path class="cls-10" d="M26.949,69.367l-2.8-2.294a1.173,1.173,0,0,1-.127-1.694l1.765-1.952,1.159,1.332Z"/><path class="cls-9" d="M37.807,51.294l4.469,6.918a1.277,1.277,0,0,1-.109,1.531l-4.36,5.016Z"/><path class="cls-10" d="M37.807,69.367l2.8-2.294a1.174,1.174,0,0,0,.126-1.694l-1.765-1.952-1.158,1.332Z"/><path class="cls-8" d="M34.689,5.122H30.066A16.86,16.86,0,0,0,13.225,21.963V36.72a.968.968,0,0,0,.968.967H50.562a.967.967,0,0,0,.968-.967V21.963A16.86,16.86,0,0,0,34.689,5.122Z"/><path class="cls-11" d="M34.689,5.122H30.965A16.86,16.86,0,0,1,47.806,21.963V36.72a.967.967,0,0,1-.967.967h3.723a.967.967,0,0,0,.968-.967V21.963A16.86,16.86,0,0,0,34.689,5.122Z"/><path class="cls-12" d="M26.948,39.651V52.118a5.43,5.43,0,0,0,5.43,5.43h0a5.43,5.43,0,0,0,5.429-5.43V39.651Z"/><path class="cls-12" d="M15.591,34.01h6.367v7.3H15.591a3.651,3.651,0,1,1,0-7.3Z"/><path class="cls-12" d="M49.165,34.01H42.8v7.3h6.368a3.651,3.651,0,0,0,0-7.3Z"/><path class="cls-13" d="M46.836,25.17v9.7a14.459,14.459,0,1,1-28.917,0V27.551a8.12,8.12,0,0,0,5.829-6.087A21.836,21.836,0,0,0,46.836,25.17Z"/><path class="cls-12" d="M46.836,34.923V25.255a21.652,21.652,0,0,1-3,1.038V36.422A12.91,12.91,0,0,1,31.655,49.311h0q.189.011.378.015h.007c.128,0,.257.005.387.005h0A14.409,14.409,0,0,0,46.836,34.923Z"/></g></svg>